<svg width="20" height="20" viewBox="0 0 20 20" fill="none" xmlns="http://www.w3.org/2000/svg">
<path d="M9.84375 2.21863L2.34375 4.87488C2.15625 4.93738 2.03125 5.12488 2.03125 5.31238V14.6874C2.03125 14.8905 2.15625 15.0624 2.34375 15.1249L9.84375 17.7811C9.89062 17.7968 9.95312 17.8124 10 17.8124C10.0312 17.8124 10.0469 17.8124 10.0781 17.8124H10.0938C10.1094 17.8124 10.125 17.7968 10.1406 17.7968L17.6406 15.1405C17.8281 15.078 17.9531 14.8905 17.9531 14.703V5.31238V5.29675C17.9531 5.28113 17.9531 5.24988 17.9531 5.23425V5.21863C17.9219 5.06238 17.8125 4.92175 17.6562 4.87488L13.9062 3.54675H13.8906C13.7969 3.5155 13.6719 3.49988 13.5625 3.54675L6.25 6.12488C6.0625 6.18738 5.9375 6.37488 5.9375 6.56238V8.28113C5.9375 8.54675 6.14062 8.74988 6.40625 8.74988C6.67188 8.74988 6.875 8.54675 6.875 8.28113V6.8905L13.7188 4.46863L16.0938 5.31238L9.84375 7.53113C9.65625 7.59363 9.53125 7.7655 9.53125 7.96863C9.53125 7.96863 9.53125 7.96863 9.53125 7.98425V16.703L2.96875 14.3593V5.6405L10.1562 3.09363C10.4062 2.99988 10.5313 2.73425 10.4375 2.49988C10.3594 2.24988 10.0938 2.12488 9.84375 2.21863ZM10.4688 8.29675L17.0312 5.96863V14.3436L10.4688 16.6718V8.29675Z" fill="black"/>
</svg>
