<svg width="336" height="336" viewBox="0 0 336 336" fill="none" xmlns="http://www.w3.org/2000/svg">
<path d="M165.375 37.2749L39.375 81.8999C36.225 82.9499 34.125 86.0999 34.125 89.2499V246.75C34.125 250.162 36.225 253.05 39.375 254.1L165.375 298.725C166.162 298.987 167.212 299.25 168 299.25C168.525 299.25 168.787 299.25 169.312 299.25H169.575C169.837 299.25 170.1 298.987 170.362 298.987L296.362 254.362C299.512 253.312 301.612 250.162 301.612 247.012V89.2499V88.9874C301.612 88.7249 301.612 88.1999 301.612 87.9374V87.6749C301.087 85.0499 299.25 82.6874 296.625 81.8999L233.625 59.5874H233.362C231.787 59.0624 229.687 58.7999 227.85 59.5874L105 102.9C101.85 103.95 99.75 107.1 99.75 110.25V139.125C99.75 143.587 103.162 147 107.625 147C112.087 147 115.5 143.587 115.5 139.125V115.762L230.475 75.0749L270.375 89.2499L165.375 126.525C162.225 127.575 160.125 130.462 160.125 133.875C160.125 133.875 160.125 133.875 160.125 134.137V280.612L49.875 241.237V94.7624L170.625 51.9749C174.825 50.3999 176.925 45.9374 175.35 41.9999C174.037 37.7999 169.575 35.6999 165.375 37.2749ZM175.875 139.387L286.125 100.275V240.975L175.875 280.087V139.387Z" fill="black"/>
</svg>
